<svg xmlns="http://www.w3.org/2000/svg" width="18" height="13.5" viewBox="0 0 18 13.5">
  <g id="icon2" transform="translate(0 -64)">
    <g id="Groupe_91" data-name="Groupe 91" transform="translate(0 64)">
      <g id="Groupe_90" data-name="Groupe 90">
        <path id="Tracé_14" data-name="Tracé 14" d="M17.625,71.5H3V64.375A.375.375,0,0,0,2.625,64H.375A.375.375,0,0,0,0,64.375v12.75a.375.375,0,0,0,.375.375h2.25A.375.375,0,0,0,3,77.125V74.5H15v2.625a.375.375,0,0,0,.375.375h2.25A.375.375,0,0,0,18,77.125v-5.25A.375.375,0,0,0,17.625,71.5Z" transform="translate(0 -64)"/>
        <circle id="Ellipse_18" data-name="Ellipse 18" cx="2.148" cy="2.148" r="2.148" transform="translate(3.807 2.301)"/>
        <path id="Tracé_15" data-name="Tracé 15" d="M256.358,132.3h7.875a.358.358,0,0,0,.358-.358A3.942,3.942,0,0,0,260.653,128h-4.3a.358.358,0,0,0-.358.358v3.58A.358.358,0,0,0,256.358,132.3Z" transform="translate(-246.591 -125.699)"/>
      </g>
    </g>
  </g>
</svg>
