<svg id="icon4" xmlns="http://www.w3.org/2000/svg" width="13.696" height="16.416" viewBox="0 0 13.696 16.416">
  <path id="Tracé_22" data-name="Tracé 22" d="M90.985,7.908a3.826,3.826,0,0,0,2.8-1.158,3.826,3.826,0,0,0,1.158-2.8,3.826,3.826,0,0,0-1.158-2.8,3.953,3.953,0,0,0-5.591,0,3.826,3.826,0,0,0-1.158,2.8,3.826,3.826,0,0,0,1.159,2.8A3.827,3.827,0,0,0,90.985,7.908Zm0,0" transform="translate(-84.241 0)" fill="#fff"/>
  <path id="Tracé_23" data-name="Tracé 23" d="M13.663,252.01a9.766,9.766,0,0,0-.133-1.037,8.173,8.173,0,0,0-.255-1.043,5.152,5.152,0,0,0-.429-.973,3.671,3.671,0,0,0-.647-.843,2.85,2.85,0,0,0-.929-.584,3.21,3.21,0,0,0-1.186-.215,1.2,1.2,0,0,0-.643.273c-.193.126-.418.271-.669.432a3.836,3.836,0,0,1-.866.382,3.363,3.363,0,0,1-2.119,0,3.827,3.827,0,0,1-.866-.382c-.249-.159-.475-.3-.67-.432a1.2,1.2,0,0,0-.642-.273,3.205,3.205,0,0,0-1.185.215,2.848,2.848,0,0,0-.929.584,3.671,3.671,0,0,0-.646.842,5.162,5.162,0,0,0-.429.973,8.192,8.192,0,0,0-.255,1.043,9.731,9.731,0,0,0-.133,1.038c-.022.314-.033.64-.033.969a2.726,2.726,0,0,0,.81,2.062A2.914,2.914,0,0,0,2.9,255.8h7.9a2.914,2.914,0,0,0,2.086-.761,2.725,2.725,0,0,0,.81-2.062C13.7,252.649,13.685,252.323,13.663,252.01Zm0,0" transform="translate(0 -239.387)" fill="#fff"/>
</svg>
