<svg xmlns="http://www.w3.org/2000/svg" width="19.117" height="16.217" viewBox="0 0 19.117 16.217">
  <g id="icon1" transform="translate(-252 -1850)">
    <g id="group" transform="translate(252 1811.16)">
      <g id="Groupe_99" data-name="Groupe 99" transform="translate(14.879 47.595)">
        <g id="Groupe_98" data-name="Groupe 98">
          <path id="Tracé_16" data-name="Tracé 16" d="M399.972,273.32h-1.478a3.846,3.846,0,0,1,.233,1.322v5.588a1.648,1.648,0,0,1-.095.552h2.444a1.658,1.658,0,0,0,1.656-1.656V276.08A2.763,2.763,0,0,0,399.972,273.32Z" transform="translate(-398.494 -273.32)"/>
        </g>
      </g>
      <g id="Groupe_101" data-name="Groupe 101" transform="translate(0 47.595)">
        <g id="Groupe_100" data-name="Groupe 100">
          <path id="Tracé_17" data-name="Tracé 17" d="M4.005,274.643a3.846,3.846,0,0,1,.233-1.322H2.76A2.763,2.763,0,0,0,0,276.081v3.046a1.658,1.658,0,0,0,1.656,1.656H4.1a1.648,1.648,0,0,1-.095-.552Z" transform="translate(0 -273.321)"/>
        </g>
      </g>
      <g id="Groupe_103" data-name="Groupe 103" transform="translate(5.109 46.157)">
        <g id="Groupe_102" data-name="Groupe 102">
          <path id="Tracé_18" data-name="Tracé 18" d="M142.969,234.815h-3.38a2.763,2.763,0,0,0-2.76,2.76v5.588a.552.552,0,0,0,.552.552h7.8a.552.552,0,0,0,.552-.552v-5.588A2.763,2.763,0,0,0,142.969,234.815Z" transform="translate(-136.829 -234.815)"/>
        </g>
      </g>
      <g id="Groupe_105" data-name="Groupe 105" transform="translate(6.24 38.84)">
        <g id="Groupe_104" data-name="Groupe 104" transform="translate(0 0)">
          <path id="Tracé_19" data-name="Tracé 19" d="M170.433,38.84a3.318,3.318,0,1,0,3.319,3.319A3.323,3.323,0,0,0,170.433,38.84Z" transform="translate(-167.114 -38.84)"/>
        </g>
      </g>
      <g id="Groupe_107" data-name="Groupe 107" transform="translate(1.249 41.933)">
        <g id="Groupe_106" data-name="Groupe 106">
          <path id="Tracé_20" data-name="Tracé 20" d="M35.925,121.689a2.481,2.481,0,1,0,2.482,2.482A2.485,2.485,0,0,0,35.925,121.689Z" transform="translate(-33.443 -121.689)"/>
        </g>
      </g>
      <g id="Groupe_109" data-name="Groupe 109" transform="translate(12.904 41.933)">
        <g id="Groupe_108" data-name="Groupe 108">
          <path id="Tracé_21" data-name="Tracé 21" d="M348.089,121.689a2.482,2.482,0,1,0,2.482,2.482A2.485,2.485,0,0,0,348.089,121.689Z" transform="translate(-345.607 -121.689)"/>
        </g>
      </g>
    </g>
  </g>
</svg>
