<svg xmlns="http://www.w3.org/2000/svg" width="14.75" height="19.667" viewBox="0 0 14.75 19.667">
  <g id="icon5" transform="translate(-51.2)">
    <g id="Groupe_83" data-name="Groupe 83" transform="translate(51.2)">
      <g id="Groupe_82" data-name="Groupe 82" transform="translate(0)">
        <path id="Tracé_12" data-name="Tracé 12" d="M57.575,6.556C57.575,2.935,56.147,0,54.388,0S51.2,2.935,51.2,6.556a3.7,3.7,0,0,0,2.06,3.438l-.289,8.034a1.432,1.432,0,1,0,2.833,0l-.289-8.034A3.7,3.7,0,0,0,57.575,6.556Z" transform="translate(-51.2)" fill="#fff"/>
      </g>
    </g>
    <g id="Groupe_85" data-name="Groupe 85" transform="translate(60.638)">
      <g id="Groupe_84" data-name="Groupe 84" transform="translate(0)">
        <path id="Tracé_13" data-name="Tracé 13" d="M235.712,5.941,235.535,0h-.885l-.177,5.941h-.708L233.587,0h-1.062l-.177,5.941h-.708L231.462,0h-.885L230.4,5.941a3.12,3.12,0,0,0,1.574,2.8l-.335,9.286a1.432,1.432,0,1,0,2.833,0l-.335-9.286A3.12,3.12,0,0,0,235.712,5.941Z" transform="translate(-230.4)" fill="#fff"/>
      </g>
    </g>
  </g>
</svg>
